<svg xmlns="http://www.w3.org/2000/svg" viewBox="0 0 1600 900">
  <defs>
    <linearGradient id="bg" x1="0" y1="0" x2="1" y2="1"><stop stop-color="#06100e"/><stop offset=".58" stop-color="#10352c"/><stop offset="1" stop-color="#07110f"/></linearGradient>
    <radialGradient id="core"><stop stop-color="#dffff8"/><stop offset=".28" stop-color="#3fe8c0"/><stop offset="1" stop-color="#0d5d4c"/></radialGradient>
    <filter id="glow"><feGaussianBlur stdDeviation="28"/></filter>
  </defs>
  <rect width="1600" height="900" fill="url(#bg)"/>
  <g stroke="#3fe8c0" opacity=".08"><path d="M0 150h1600M0 300h1600M0 450h1600M0 600h1600M0 750h1600"/><path d="M200 0v900M400 0v900M600 0v900M800 0v900M1000 0v900M1200 0v900M1400 0v900"/></g>
  <circle cx="485" cy="430" r="250" fill="#3fe8c0" opacity=".13" filter="url(#glow)"/>
  <g transform="translate(250 190)">
    <rect x="90" y="90" width="330" height="330" rx="56" fill="#081713" stroke="#3fe8c0" stroke-width="5" opacity=".98"/>
    <rect x="150" y="150" width="210" height="210" rx="42" fill="url(#core)"/>
    <circle cx="255" cy="255" r="55" fill="#07110f" opacity=".72"/>
    <path d="M255 205v100M205 255h100M220 220l70 70M290 220l-70 70" stroke="#eafffa" stroke-width="10" stroke-linecap="round" opacity=".9"/>
    <g stroke="#3fe8c0" stroke-width="9" stroke-linecap="round" opacity=".65">
      <path d="M165 55v35M220 55v35M275 55v35M330 55v35M385 55v35"/><path d="M165 420v35M220 420v35M275 420v35M330 420v35M385 420v35"/>
      <path d="M55 165h35M55 220h35M55 275h35M55 330h35M55 385h35"/><path d="M420 165h35M420 220h35M420 275h35M420 330h35M420 385h35"/>
    </g>
    <text x="255" y="505" text-anchor="middle" fill="#3fe8c0" font-family="monospace" font-size="30" letter-spacing="12">IRIS</text>
  </g>
  <g fill="none" stroke="#3fe8c0" stroke-width="5" opacity=".48"><path d="M710 440C860 440 860 230 1030 230"/><path d="M710 440h470"/><path d="M710 440C860 440 860 650 1030 650"/></g>
  <g font-family="monospace" text-anchor="middle">
    <g transform="translate(1110 230)"><circle r="92" fill="#091815" stroke="#3fe8c0" stroke-width="4"/><circle r="48" fill="#3fe8c0" opacity=".15"/><circle r="14" fill="#3fe8c0"/><text y="135" fill="#a8c5bc" font-size="20" letter-spacing="6">IDENTITY</text></g>
    <g transform="translate(1260 440)"><circle r="92" fill="#091815" stroke="#3fe8c0" stroke-width="4"/><circle r="48" fill="#3fe8c0" opacity=".15"/><circle r="14" fill="#3fe8c0"/><text y="135" fill="#a8c5bc" font-size="20" letter-spacing="6">CONTROL</text></g>
    <g transform="translate(1110 650)"><circle r="92" fill="#091815" stroke="#3fe8c0" stroke-width="4"/><circle r="48" fill="#3fe8c0" opacity=".15"/><circle r="14" fill="#3fe8c0"/><text y="135" fill="#a8c5bc" font-size="20" letter-spacing="6">TRUST</text></g>
  </g>
  <text x="80" y="85" fill="#3fe8c0" font-family="monospace" font-size="26" letter-spacing="10">CINNOVA AI NEWS</text>
  <text x="800" y="838" text-anchor="middle" fill="#dffff8" font-family="Arial, sans-serif" font-size="34" font-weight="700">META'S IRIS CHIP · THE RACE FOR AI INFRASTRUCTURE</text>
</svg>