<svg xmlns="http://www.w3.org/2000/svg" viewBox="0 0 1920 1280" role="img" aria-label="Kiddo learning worlds concept sheet">
  <defs>
    <filter id="w"><feDropShadow dx="0" dy="6" stdDeviation="8" flood-opacity="0.12"/></filter>
  </defs>
  <g transform="translate(0 0)"><rect width="640" height="640" fill="#bbf7d0"/><g filter="url(#w)">
    <ellipse cx="200" cy="120" rx="120" ry="50" fill="#fff" opacity="0.5"/>
    <rect x="40" y="380" width="560" height="200" rx="40" fill="#34d399" opacity="0.35"/>
    <circle cx="120" cy="280" r="80" fill="#059669"/><text x="120" y="300" text-anchor="middle" font-family="Georgia,serif" font-size="72" font-weight="700" fill="#fff">A</text>
    <circle cx="320" cy="220" r="70" fill="#10b981"/><text x="320" y="240" text-anchor="middle" font-family="Georgia,serif" font-size="60" font-weight="700" fill="#fff">B</text>
    <circle cx="500" cy="300" r="75" fill="#047857"/><text x="500" y="320" text-anchor="middle" font-family="Georgia,serif" font-size="64" font-weight="700" fill="#fff">C</text>
    <rect x="80" y="450" width="90" height="140" rx="20" fill="#166534"/><ellipse cx="125" cy="420" rx="70" ry="80" fill="#22c55e"/>
    <rect x="480" y="460" width="80" height="130" rx="18" fill="#166534"/><ellipse cx="520" cy="430" rx="65" ry="75" fill="#4ade80"/>
  </g></g>
  <g transform="translate(640 0)"><rect width="640" height="640" fill="#fef3c7"/><g filter="url(#w)">
    <polygon points="320,120 520,520 120,520" fill="#fbbf24"/>
    <polygon points="320,200 460,520 180,520" fill="#fde68a"/>
    <text x="320" y="420" text-anchor="middle" font-family="Georgia,serif" font-size="120" font-weight="700" fill="#92400e">7</text>
    <circle cx="180" cy="180" r="36" fill="#f59e0b"/><text x="180" y="192" text-anchor="middle" font-size="28" font-weight="700" fill="#fff">1</text>
    <circle cx="460" cy="200" r="32" fill="#f59e0b"/><text x="460" y="212" text-anchor="middle" font-size="24" font-weight="700" fill="#fff">2</text>
    <path d="M120 520 L520 520 L560 580 L80 580 Z" fill="#d97706" opacity="0.5"/>
  </g></g>
  <g transform="translate(1280 0)"><rect width="640" height="640" fill="#ede9fe"/><g filter="url(#w)">
    <rect x="180" y="280" width="280" height="220" rx="16" fill="#a78bfa"/>
    <rect x="220" y="220" width="80" height="80" rx="8" fill="#8b5cf6"/>
    <rect x="340" y="180" width="100" height="120" rx="8" fill="#7c3aed"/>
    <polygon points="220,220 260,160 300,220" fill="#ddd6fe"/>
    <polygon points="340,180 390,100 440,180" fill="#ddd6fe"/>
    <rect x="300" y="360" width="48" height="80" rx="8" fill="#6d28d9"/>
    <rect x="80" y="420" width="480" height="120" rx="24" fill="#c4b5fd" opacity="0.6"/>
    <text x="320" y="500" text-anchor="middle" font-family="Georgia,serif" font-size="36" font-weight="700" fill="#5b21b6">Once upon a time…</text>
  </g></g>
  <g transform="translate(0 640)"><rect width="640" height="640" fill="#e0f2fe"/><g filter="url(#w)">
    <rect x="60" y="200" width="520" height="280" rx="24" fill="#fff" opacity="0.7"/>
    <rect x="100" y="240" width="120" height="180" rx="60" fill="#38bdf8" opacity="0.5"/>
    <rect x="260" y="260" width="100" height="160" rx="50" fill="#0ea5e9" opacity="0.5"/>
    <rect x="400" y="250" width="110" height="170" rx="55" fill="#7dd3fc" opacity="0.5"/>
    <circle cx="160" cy="320" r="40" fill="#f472b6" opacity="0.8"/>
    <circle cx="310" cy="340" r="36" fill="#34d399" opacity="0.8"/>
    <circle cx="455" cy="330" r="38" fill="#fbbf24" opacity="0.8"/>
    <path d="M80 500 Q320 460 560 500" stroke="#0284c7" stroke-width="6" fill="none"/>
  </g></g>
  <g transform="translate(640 640)"><rect width="640" height="640" fill="#ccfbf1"/><g filter="url(#w)">
    <rect x="0" y="400" width="640" height="240" fill="#2dd4bf" opacity="0.4"/>
    <path d="M0 400 C160 360 320 420 480 380 C560 360 600 370 640 360 L640 640 L0 640 Z" fill="#14b8a6" opacity="0.5"/>
    <ellipse cx="200" cy="350" rx="100" ry="40" fill="#5eead4" opacity="0.6"/>
    <circle cx="420" cy="300" r="55" fill="#f97316"/>
    <path d="M400 310 Q420 280 440 310" stroke="#fff" stroke-width="4" fill="none"/>
    <circle cx="150" cy="480" r="28" fill="#38bdf8"/><circle cx="500" cy="500" r="22" fill="#a78bfa"/>
    <path d="M300 520 Q340 480 380 520" fill="#0d9488"/>
  </g></g>
  <g transform="translate(1280 640)"><rect width="640" height="640" fill="#1e1b4b"/><g filter="url(#w)">
    <circle cx="480" cy="160" r="50" fill="#fef08a"/>
    <circle cx="120" cy="100" r="4" fill="#fff"/><circle cx="200" cy="60" r="3" fill="#fff"/><circle cx="560" cy="80" r="5" fill="#fff"/>
    <circle cx="320" cy="50" r="3" fill="#fff"/><circle cx="400" cy="120" r="4" fill="#fff"/><circle cx="80" cy="200" r="3" fill="#fff"/>
    <ellipse cx="320" cy="420" rx="180" ry="60" fill="#312e81" opacity="0.8"/>
    <circle cx="320" cy="340" r="90" fill="#6366f1"/>
    <circle cx="300" cy="325" r="12" fill="#fff" opacity="0.35"/><circle cx="350" cy="360" r="8" fill="#fff" opacity="0.25"/>
    <polygon points="320,180 340,240 400,240 352,276 368,336 320,304 272,336 288,276 240,240 300,240" fill="#fbbf24"/>
    <rect x="260" y="400" width="120" height="80" rx="20" fill="#818cf8"/>
  </g></g>
</svg>
