<svg xmlns="http://www.w3.org/2000/svg" viewBox="0 0 1600 400" role="img" aria-label="Kiddo character concept portraits">
  <defs><linearGradient id="bg" x1="0" y1="0" x2="1" y2="1"><stop offset="0%" stop-color="#fb7185"/><stop offset="100%" stop-color="#f472b6"/></linearGradient><filter id="s"><feDropShadow dx="0" dy="4" stdDeviation="6" flood-opacity="0.15"/></filter></defs>
  <!-- Luna -->
  <rect x="0" y="0" width="320" height="400" fill="url(#bg)"/>
  <g filter="url(#s)" transform="translate(110 80)">
    <circle cx="50" cy="55" r="72" fill="#fff" opacity="0.2"/>
    <circle cx="50" cy="70" r="68" fill="#fb7185"/>
    <circle cx="28" cy="58" r="9" fill="#431407"/><circle cx="72" cy="58" r="9" fill="#431407"/>
    <path d="M35 88 Q50 104 65 88" stroke="#431407" stroke-width="5" fill="none" stroke-linecap="round"/>
    <path d="M50 18 C30 -8 78 -8 58 18" fill="#9a3412"/>
    <rect x="78" y="95" width="32" height="40" rx="8" fill="#f472b6"/>
    <ellipse cx="50" cy="155" rx="58" ry="22" fill="#fda4af"/>
  </g>
  <!-- Oliver -->
  <rect x="320" y="0" width="320" height="400" fill="#8b5cf6"/>
  <g filter="url(#s)" transform="translate(430 75)">
    <circle cx="50" cy="50" r="72" fill="#fff" opacity="0.15"/>
    <ellipse cx="50" cy="75" rx="72" ry="78" fill="#7c3aed"/>
    <ellipse cx="50" cy="82" rx="48" ry="52" fill="#ede9fe"/>
    <circle cx="30" cy="72" r="12" fill="#fff"/><circle cx="70" cy="72" r="12" fill="#fff"/>
    <circle cx="30" cy="72" r="6" fill="#431407"/><circle cx="70" cy="72" r="6" fill="#431407"/>
    <polygon points="50,88 40,102 60,102" fill="#f59e0b"/>
    <rect x="22" y="38" width="56" height="10" rx="5" fill="#5b21b6"/>
  </g>
  <!-- Nova -->
  <rect x="640" y="0" width="320" height="400" fill="#818cf8"/>
  <g filter="url(#s)" transform="translate(750 80)">
    <circle cx="50" cy="55" r="72" fill="#fff" opacity="0.15"/>
    <circle cx="50" cy="72" r="68" fill="#6366f1"/>
    <circle cx="32" cy="65" r="8" fill="#431407"/><circle cx="68" cy="65" r="8" fill="#431407"/>
    <path d="M40 88 Q50 98 60 88" stroke="#431407" stroke-width="4" fill="none" stroke-linecap="round"/>
    <polygon points="50,8 58,32 84,32 64,48 72,74 50,60 28,74 36,48 16,32 42,32" fill="#fbbf24"/>
    <rect x="22" y="118" width="56" height="42" rx="14" fill="#4f46e5"/>
  </g>
  <!-- Coral -->
  <rect x="960" y="0" width="320" height="400" fill="#2dd4bf"/>
  <g filter="url(#s)" transform="translate(1070 80)">
    <circle cx="50" cy="55" r="72" fill="#fff" opacity="0.18"/>
    <circle cx="50" cy="72" r="68" fill="#14b8a6"/>
    <circle cx="32" cy="65" r="8" fill="#431407"/><circle cx="68" cy="65" r="8" fill="#431407"/>
    <path d="M40 88 Q50 100 60 88" stroke="#431407" stroke-width="4" fill="none" stroke-linecap="round"/>
    <path d="M20 45 C35 20 75 25 80 50 C60 55 45 48 20 45" fill="#0d9488"/>
    <ellipse cx="50" cy="150" rx="55" ry="20" fill="#5eead4"/>
    <circle cx="95" cy="100" r="12" fill="#f97316" opacity="0.8"/>
    <circle cx="8" cy="110" r="8" fill="#38bdf8"/>
  </g>
  <!-- Max -->
  <rect x="1280" y="0" width="320" height="400" fill="#fbbf24"/>
  <g filter="url(#s)" transform="translate(1390 78)">
    <circle cx="50" cy="55" r="72" fill="#fff" opacity="0.2"/>
    <circle cx="50" cy="70" r="70" fill="#f59e0b"/>
    <circle cx="30" cy="62" r="9" fill="#431407"/><circle cx="70" cy="62" r="9" fill="#431407"/>
    <ellipse cx="50" cy="82" rx="18" ry="12" fill="#92400e"/>
    <path d="M50 20 C30 0 78 0 58 22" fill="#b45309"/>
    <rect x="18" y="118" width="64" height="48" rx="16" fill="#d97706"/>
    <text x="50" y="152" text-anchor="middle" font-family="Georgia,serif" font-size="28" font-weight="700" fill="#fff">5</text>
  </g>
</svg>
