<svg xmlns="http://www.w3.org/2000/svg" viewBox="0 0 640 640" role="img" aria-label="Space Explorer learning world concept art">
  <defs><filter id="w"><feDropShadow dx="0" dy="6" stdDeviation="8" flood-opacity="0.12"/></filter></defs>
  <rect width="640" height="640" fill="#1e1b4b"/>
  <g filter="url(#w)">
    <circle cx="480" cy="160" r="50" fill="#fef08a"/>
    <circle cx="120" cy="100" r="4" fill="#fff"/><circle cx="200" cy="60" r="3" fill="#fff"/><circle cx="560" cy="80" r="5" fill="#fff"/>
    <circle cx="320" cy="50" r="3" fill="#fff"/><circle cx="400" cy="120" r="4" fill="#fff"/><circle cx="80" cy="200" r="3" fill="#fff"/>
    <ellipse cx="320" cy="420" rx="180" ry="60" fill="#312e81" opacity="0.8"/>
    <circle cx="320" cy="340" r="90" fill="#6366f1"/>
    <circle cx="300" cy="325" r="12" fill="#fff" opacity="0.35"/><circle cx="350" cy="360" r="8" fill="#fff" opacity="0.25"/>
    <polygon points="320,180 340,240 400,240 352,276 368,336 320,304 272,336 288,276 240,240 300,240" fill="#fbbf24"/>
    <rect x="260" y="400" width="120" height="80" rx="20" fill="#818cf8"/>
  </g>
</svg>
